HIERARCHY
ROOT mixamorig:Hips
{
  OFFSET 0.000000 0.000000 0.000000
  CHANNELS 6 Xposition Yposition Zposition Xrotation Yrotation Zrotation
  JOINT mixamorig:Spine
  {
    OFFSET -2.607334 24.198518 2.803427
    CHANNELS 3 Xrotation Yrotation Zrotation
    JOINT mixamorig:Spine2
    {
      OFFSET -2.607334 24.198518 2.803427
      CHANNELS 3 Xrotation Yrotation Zrotation
      JOINT mixamorig:Neck
      {
        OFFSET 0.000000 5.000000 0.000000
        CHANNELS 3 Xrotation Yrotation Zrotation
        JOINT mixamorig:Head
        {
          OFFSET 0.000000 10.000000 0.000000
          CHANNELS 3 Xrotation Yrotation Zrotation
          End Site
          {
            OFFSET 0.000000 3.000000 0.000000
          }
        }
      }
      JOINT mixamorig:LeftShoulder
      {
        OFFSET 14.445449 1.363860 -7.204924
        CHANNELS 3 Xrotation Yrotation Zrotation
        JOINT mixamorig:LeftArm
        {
          OFFSET 8.587155 -6.647706 -12.646066
          CHANNELS 3 Xrotation Yrotation Zrotation
          JOINT mixamorig:LeftForeArm
          {
            OFFSET -12.249736 3.490853 -10.235041
            CHANNELS 3 Xrotation Yrotation Zrotation
            JOINT mixamorig:LeftHand
            {
              OFFSET -4.025522 2.029083 -1.265595
              CHANNELS 3 Xrotation Yrotation Zrotation
              End Site
              {
                OFFSET -1.207657 0.608725 -0.379679
              }
            }
          }
        }
      }
      JOINT mixamorig:RightShoulder
      {
        OFFSET -14.445449 1.363860 7.204924
        CHANNELS 3 Xrotation Yrotation Zrotation
        JOINT mixamorig:RightArm
        {
          OFFSET -0.912881 -23.734087 -11.309987
          CHANNELS 3 Xrotation Yrotation Zrotation
          JOINT mixamorig:RightForeArm
          {
            OFFSET 1.700208 13.342467 -20.550903
            CHANNELS 3 Xrotation Yrotation Zrotation
            JOINT mixamorig:RightHand
            {
              OFFSET 2.846418 6.531953 -4.513677
              CHANNELS 3 Xrotation Yrotation Zrotation
              End Site
              {
                OFFSET 0.853925 1.959586 -1.354103
              }
            }
          }
        }
      }
    }
  }
  JOINT mixamorig:LeftUpLeg
  {
    OFFSET 9.244047 0.416567 -0.915531
    CHANNELS 3 Xrotation Yrotation Zrotation
    JOINT mixamorig:LeftLeg
    {
      OFFSET 12.496326 -40.539871 -10.306095
      CHANNELS 3 Xrotation Yrotation Zrotation
      JOINT mixamorig:LeftFoot
      {
        OFFSET 16.022609 -36.389709 1.174949
        CHANNELS 3 Xrotation Yrotation Zrotation
        JOINT mixamorig:LeftToeBase
        {
          OFFSET 0.321405 -4.824194 -7.621081
          CHANNELS 3 Xrotation Yrotation Zrotation
          End Site
          {
            OFFSET 0.096421 -1.447258 -2.286324
          }
        }
      }
    }
  }
  JOINT mixamorig:RightUpLeg
  {
    OFFSET -9.244047 -0.416567 0.915531
    CHANNELS 3 Xrotation Yrotation Zrotation
    JOINT mixamorig:RightLeg
    {
      OFFSET -10.138142 -28.067208 1.679213
      CHANNELS 3 Xrotation Yrotation Zrotation
      JOINT mixamorig:RightFoot
      {
        OFFSET -4.297917 -39.464900 21.092298
        CHANNELS 3 Xrotation Yrotation Zrotation
        JOINT mixamorig:RightToeBase
        {
          OFFSET -8.545734 -3.908527 -4.135349
          CHANNELS 3 Xrotation Yrotation Zrotation
          End Site
          {
            OFFSET -2.563720 -1.172558 -1.240605
          }
        }
      }
    }
  }
}
MOTION
Frames: 6
Frame Time: 0.083333
0.054233 0.247317 0.126031 -30.839282 -4.319732 -6.421226 0.000000 0.000000 -0.000000 5.280303 11.763898 9.089234 12.501217 0.166192 6.641141 12.438783 -1.264924 6.834126 -10.789826 -9.696098 -29.775663 39.881185 -3.017432 9.512801 -0.856182 14.559832 -11.609205 0.000000 0.000000 0.000000 35.500091 -7.362357 0.775293 -17.179571 -6.730424 -3.618649 0.792090 0.760204 -6.892988 0.000000 0.000000 0.000000 27.112204 6.691470 -0.345014 -2.303489 -3.308069 -2.935887 4.755841 -1.804639 10.306377 0.000000 0.000000 0.000000 0.000000 0.000000 0.000000 0.000000 0.000000 0.000000 40.276083 -20.300137 6.479151 0.000000 0.000000 0.000000
0.054332 0.247671 0.125762 -30.837742 -4.317311 -6.407743 0.000000 0.000000 -0.000000 5.283378 11.744062 9.068462 12.444871 0.125864 6.634666 12.377898 -1.297538 6.818767 -10.739297 -9.636951 -29.755496 39.963498 -3.017524 9.380949 -0.933006 14.600517 -11.647848 0.000000 0.000000 0.000000 35.516320 -7.358646 0.795811 -17.193543 -6.703032 -3.631633 0.778604 0.739260 -6.917256 0.000000 0.000000 0.000000 26.912535 6.601393 -0.339561 -2.108296 -3.228052 -2.930706 4.813242 -1.824174 10.326147 0.000000 0.000000 0.000000 0.000000 0.000000 0.000000 0.000000 0.000000 0.000000 40.199501 -20.230960 6.542775 0.000000 0.000000 0.000000
0.054661 0.248495 0.123442 -31.323978 -4.394978 -6.396926 0.000000 0.000000 0.000000 5.261129 12.037460 9.211305 11.823762 -0.350330 6.739977 11.701111 -1.732139 6.811602 -10.517034 -9.914570 -30.074880 40.594901 -2.427379 8.510116 -1.343210 14.527993 -11.875900 0.000000 0.000000 0.000000 35.740727 -7.658139 0.883009 -16.511985 -6.793661 -3.775458 0.972486 0.918607 -6.561006 0.000000 0.000000 0.000000 28.748222 7.217921 -0.467292 -3.471093 -3.745160 -2.838261 4.578769 -0.559144 9.225078 0.000000 0.000000 0.000000 0.000000 0.000000 0.000000 0.000000 0.000000 0.000000 41.407084 -21.396788 5.847187 0.000000 0.000000 0.000000
0.055214 0.249371 0.118063 -33.151935 -4.643749 -6.107874 0.000000 0.000000 0.000000 5.318901 11.726914 8.868340 11.621156 -1.161524 6.696711 11.400670 -2.522091 6.587230 -8.392640 -8.939893 -30.073144 42.184331 -1.994896 6.639581 -2.797343 15.256459 -11.568142 0.000000 0.000000 0.000000 38.075500 -7.462896 1.274940 -16.008212 -6.587662 -4.239654 0.959861 0.851427 -6.395814 0.000000 0.000000 0.000000 30.178271 7.179190 -0.919649 -2.818286 -3.384139 -2.804110 4.454773 0.011760 8.638178 0.000000 0.000000 0.000000 0.000000 0.000000 0.000000 0.000000 0.000000 0.000000 42.720600 -21.238084 5.519345 0.000000 0.000000 0.000000
0.055709 0.249670 0.112097 -36.311369 -5.072961 -5.627753 0.000000 0.000000 0.000000 5.451605 10.735171 8.051565 12.883226 -1.897065 6.480113 12.568419 -3.370493 6.205769 -4.533417 -6.312843 -30.058014 44.676073 -1.592055 4.664395 -5.356740 16.331630 -9.948272 0.000000 0.000000 0.000000 42.683163 -6.697888 1.992308 -15.583695 -6.475184 -5.343302 0.622063 0.971496 -6.029287 0.000000 0.000000 0.000000 32.612570 7.125622 -1.773214 -1.432439 -2.670474 -2.928143 3.894098 -0.496462 8.836991 0.000000 0.000000 0.000000 0.000000 0.000000 0.000000 0.000000 0.000000 0.000000 44.526121 -19.792019 5.089233 0.000000 0.000000 0.000000
0.056453 0.247606 0.110187 -35.762874 -4.963051 -5.565240 0.000000 0.000000 0.000000 5.558305 9.480949 7.354972 13.857773 -2.374130 6.326030 13.477296 -3.932731 5.937111 -4.258457 -3.140244 -30.309870 47.795640 -0.584149 2.148092 -8.568029 15.757222 -8.326969 0.000000 0.000000 0.000000 43.051590 -6.079439 2.759971 -14.853351 -7.128812 -7.181547 -0.161891 2.089753 -4.969413 0.000000 0.000000 0.000000 31.531409 6.735912 -1.718692 -0.557385 -2.286756 -3.155941 3.672735 -1.710713 9.843899 0.000000 0.000000 0.000000 0.000000 0.000000 0.000000 0.000000 0.000000 0.000000 43.348541 -18.058826 5.196024 0.000000 0.000000 0.000000
